<svg width="40" height="40" viewBox="0 0 40 40" fill="none" xmlns="http://www.w3.org/2000/svg">
<path d="M7.40152 5.47184L7.41609 5.55448H7.5H39.1667C39.4525 5.55448 39.5927 5.70361 39.7596 5.88572C39.8233 5.95518 39.8609 6.06823 39.8808 6.17707C39.8904 6.22941 39.8952 6.27675 39.8976 6.31097C39.8988 6.32801 39.8994 6.34163 39.8997 6.35078L39.8998 6.35324L36.5692 20.8868L36.5666 20.8978V20.9091C36.5666 21.0614 36.496 21.22 36.3846 21.3415C36.2727 21.4637 36.131 21.5364 36 21.5364H35.9926L35.9852 21.5375L11.6519 25.1738L11.5128 25.1946L11.5781 25.3191C12.2631 26.6269 13.6318 27.3727 15 27.3727H34C34.2245 27.3727 34.4052 27.4537 34.5305 27.5903C34.6564 27.7277 34.7334 27.9294 34.7334 28.1819C34.7334 28.4343 34.6564 28.636 34.5305 28.7734C34.4052 28.91 34.2245 28.991 34 28.991H14.8334C12.2201 28.991 9.75784 26.849 9.26528 23.9831L9.26513 23.9823L5.26513 1.80041L5.2503 1.71816H5.16672H0.833359C0.608845 1.71816 0.42814 1.6372 0.302895 1.50057C0.176928 1.36315 0.1 1.16151 0.1 0.909037C0.1 0.656561 0.176928 0.454921 0.302885 0.317513C0.428119 0.180894 0.608798 0.0999618 0.833264 0.1H0.833281H5.83328C5.9693 0.1 6.15594 0.177257 6.31165 0.304647C6.46854 0.432999 6.56664 0.589272 6.56664 0.727247V0.735994L6.56816 0.744608L7.40152 5.47184ZM35.1807 20.099L35.2494 20.0893L35.2643 20.0214L38.0977 7.11229L38.1243 6.99085H38H7.83328H7.71328L7.73492 7.10888L10.7349 23.4726L10.7522 23.567L10.8473 23.5535L35.1807 20.099ZM10.1 35.4546C10.1 32.956 11.8966 31.0091 14.1666 31.0091C16.4368 31.0091 18.2334 32.956 18.2333 35.4546C18.2333 37.9531 16.4368 39.9 14.1666 39.9C11.8966 39.9 10.1 37.9532 10.1 35.4546ZM11.5666 35.4546C11.5666 36.9559 12.77 38.2818 14.1666 38.2818C15.5632 38.2818 16.7666 36.9559 16.7666 35.4546C16.7666 33.9532 15.5632 32.6273 14.1666 32.6273C12.77 32.6273 11.5666 33.9532 11.5666 35.4546ZM26.7667 35.4546C26.7667 32.956 28.5632 31.0091 30.8334 31.0091C33.1034 31.0091 34.9 32.956 34.9 35.4546C34.9 37.9531 33.1035 39.9 30.8334 39.9C28.5633 39.9 26.7667 37.9532 26.7667 35.4546ZM28.2334 35.4546C28.2334 36.9559 29.4368 38.2818 30.8334 38.2818C32.2299 38.2818 33.4334 36.9559 33.4334 35.4546C33.4334 33.9532 32.23 32.6273 30.8334 32.6273C29.4368 32.6273 28.2334 33.9532 28.2334 35.4546Z" fill="white" stroke="#222222" stroke-width="0.2"/>
</svg>
