<svg width="46" height="48" viewBox="0 0 46 48" fill="none" xmlns="http://www.w3.org/2000/svg">
<g filter="url(#filter0_d)">
<path d="M40.25 0H12.75C12.0591 0 11.5 0.559069 11.5 1.25001V4.99998H14V2.50003H39V37.5H14V35H11.5V38.75C11.5 39.4409 12.0591 40 12.75 40H40.25C40.941 40 41.5 39.4409 41.5 38.75V1.25001C41.5 0.559069 40.9409 0 40.25 0Z" fill="white"/>
<path d="M16.3486 27L18.1162 28.7676L26.5 20.3838L18.1162 12L16.3486 13.7676L21.7148 19.1338H4V21.6338H21.7149L16.3486 27Z" fill="white"/>
<path d="M14 2.22503H13.725V2.50003V4.72498H11.775V1.25001C11.775 0.710948 12.2109 0.275 12.75 0.275H40.25C40.789 0.275 41.225 0.710959 41.225 1.25001V38.75C41.225 39.2891 40.7891 39.725 40.25 39.725H12.75C12.2109 39.725 11.775 39.2891 11.775 38.75V35.275H13.725V37.5V37.775H14H39H39.275V37.5V2.50003V2.22503H39H14ZM21.7149 21.3588H4.275V19.4088H21.7148H22.3787L21.9093 18.9393L16.7375 13.7676L18.1162 12.3889L26.111 20.3838L18.1162 28.3787L16.7375 27L21.9093 21.8283L22.3788 21.3588H21.7149Z" stroke="#222222" stroke-width="0.55"/>
</g>
<defs>
<filter id="filter0_d" x="0" y="0" width="45.5" height="48" filterUnits="userSpaceOnUse" color-interpolation-filters="sRGB">
<feFlood flood-opacity="0" result="BackgroundImageFix"/>
<feColorMatrix in="SourceAlpha" type="matrix" values="0 0 0 0 0 0 0 0 0 0 0 0 0 0 0 0 0 0 127 0"/>
<feOffset dy="4"/>
<feGaussianBlur stdDeviation="2"/>
<feColorMatrix type="matrix" values="0 0 0 0 0 0 0 0 0 0 0 0 0 0 0 0 0 0 0.25 0"/>
<feBlend mode="normal" in2="BackgroundImageFix" result="effect1_dropShadow"/>
<feBlend mode="normal" in="SourceGraphic" in2="effect1_dropShadow" result="shape"/>
</filter>
</defs>
</svg>
