<svg width="48" height="48" viewBox="0 0 48 48" fill="none" xmlns="http://www.w3.org/2000/svg">
<g filter="url(#filter0_d)">
<path d="M43.7559 37.3991L32.1361 25.7794C34.3401 23.0586 35.6667 19.5995 35.6667 15.8334C35.6667 7.10291 28.5638 0 19.8333 0C11.1028 0 4 7.10291 4 15.8334C4 24.5639 11.1029 31.6668 19.8334 31.6668C23.5995 31.6668 27.0586 30.3401 29.7794 28.1362L41.3991 39.7559C41.7247 40.0813 42.2522 40.0813 42.5777 39.7559L43.7559 38.5777C44.0813 38.2522 44.0813 37.7245 43.7559 37.3991ZM19.8334 28.3334C12.9405 28.3334 7.33337 22.7263 7.33337 15.8334C7.33337 8.94049 12.9405 3.33337 19.8334 3.33337C26.7263 3.33337 32.3334 8.94049 32.3334 15.8334C32.3334 22.7263 26.7263 28.3334 19.8334 28.3334Z" fill="white"/>
<path d="M43.4377 37.7174L43.4377 37.7173L31.8179 26.0976L31.5314 25.8111L31.7865 25.4962C33.9284 22.8518 35.2167 19.4918 35.2167 15.8334C35.2167 7.35143 28.3153 0.45 19.8333 0.45C11.3514 0.45 4.45 7.35143 4.45 15.8334C4.45 24.3153 11.3514 31.2168 19.8334 31.2168C23.4918 31.2168 26.8518 29.9284 29.4962 27.7865L29.8111 27.5315L30.0976 27.818L41.7173 39.4377C41.7173 39.4377 41.7173 39.4377 41.7173 39.4377C41.8671 39.5874 42.1097 39.5874 42.2595 39.4378L43.4377 37.7174ZM43.4377 37.7174C43.5874 37.867 43.5874 38.1097 43.4377 38.2595C43.4377 38.2595 43.4377 38.2595 43.4377 38.2595L42.2596 39.4377L43.4377 37.7174ZM6.88337 15.8334C6.88337 22.9748 12.692 28.7834 19.8334 28.7834C26.9748 28.7834 32.7834 22.9748 32.7834 15.8334C32.7834 8.69196 26.9748 2.88337 19.8334 2.88337C12.692 2.88337 6.88337 8.69196 6.88337 15.8334Z" stroke="#222222" stroke-width="0.9"/>
</g>
<defs>
<filter id="filter0_d" x="0" y="0" width="48" height="48" filterUnits="userSpaceOnUse" color-interpolation-filters="sRGB">
<feFlood flood-opacity="0" result="BackgroundImageFix"/>
<feColorMatrix in="SourceAlpha" type="matrix" values="0 0 0 0 0 0 0 0 0 0 0 0 0 0 0 0 0 0 127 0"/>
<feOffset dy="4"/>
<feGaussianBlur stdDeviation="2"/>
<feColorMatrix type="matrix" values="0 0 0 0 0 0 0 0 0 0 0 0 0 0 0 0 0 0 0.25 0"/>
<feBlend mode="normal" in2="BackgroundImageFix" result="effect1_dropShadow"/>
<feBlend mode="normal" in="SourceGraphic" in2="effect1_dropShadow" result="shape"/>
</filter>
</defs>
</svg>
